HIERARCHY
ROOT Hips
{
	OFFSET -13.091600 -28.302996 44.698402
	CHANNELS 6 Xposition Yposition Zposition Zrotation Xrotation Yrotation
	JOINT Chest
	{
		OFFSET -0.673000 0.623899 5.369202
		CHANNELS 6 Xposition Yposition Zposition Zrotation Xrotation Yrotation
		JOINT Chest2
		{
			OFFSET 0.000000 0.000000 4.415001
			CHANNELS 6 Xposition Yposition Zposition Zrotation Xrotation Yrotation
			JOINT Neck
			{
				OFFSET 0.000000 0.000002 10.273300
				CHANNELS 6 Xposition Yposition Zposition Zrotation Xrotation Yrotation
				JOINT Head
				{
					OFFSET 0.000000 0.000000 2.173897
					CHANNELS 6 Xposition Yposition Zposition Zrotation Xrotation Yrotation
					End Site
					{
						OFFSET 0.000000 0.000000 9.961800
					}
				}
			}
			JOINT LeftCollar
			{
				OFFSET 2.359900 -0.565201 5.928101
				CHANNELS 6 Xposition Yposition Zposition Zrotation Xrotation Yrotation
				JOINT LeftShoulder
				{
					OFFSET 5.443700 0.000000 0.000000
					CHANNELS 6 Xposition Yposition Zposition Zrotation Xrotation Yrotation
					JOINT LeftElbow
					{
						OFFSET 0.000000 0.000000 -10.615799
						CHANNELS 6 Xposition Yposition Zposition Zrotation Xrotation Yrotation
						JOINT LeftWrist
						{
							OFFSET 0.000000 -0.000002 -13.110302
							CHANNELS 6 Xposition Yposition Zposition Zrotation Xrotation Yrotation
							End Site
							{
								OFFSET 0.000000 0.000000 -2.173901
							}
						}
					}
				}
			}
			JOINT RightCollar
			{
				OFFSET -2.636600 -1.718800 6.889698
				CHANNELS 6 Xposition Yposition Zposition Zrotation Xrotation Yrotation
				JOINT RightShoulder
				{
					OFFSET -4.139101 0.000000 0.000000
					CHANNELS 6 Xposition Yposition Zposition Zrotation Xrotation Yrotation
					JOINT RightElbow
					{
						OFFSET 0.000000 0.000000 -10.471802
						CHANNELS 6 Xposition Yposition Zposition Zrotation Xrotation Yrotation
						JOINT RightWrist
						{
							OFFSET 0.000000 0.000000 -12.281898
							CHANNELS 6 Xposition Yposition Zposition Zrotation Xrotation Yrotation
							End Site
							{
								OFFSET 0.000000 -0.000002 -2.173901
							}
						}
					}
				}
			}
		}
	}
	JOINT LeftHip
	{
		OFFSET 2.273400 0.176701 -2.518002
		CHANNELS 6 Xposition Yposition Zposition Zrotation Xrotation Yrotation
		JOINT LeftKnee
		{
			OFFSET 0.000000 -0.000002 -20.456402
			CHANNELS 6 Xposition Yposition Zposition Zrotation Xrotation Yrotation
			JOINT LeftAnkle
			{
				OFFSET 0.000000 -0.000002 -16.635300
				CHANNELS 6 Xposition Yposition Zposition Zrotation Xrotation Yrotation
				End Site
				{
					OFFSET 0.000000 -8.812399 0.000001
				}
			}
		}
	}
	JOINT RightHip
	{
		OFFSET -1.914800 0.018101 -2.699299
		CHANNELS 6 Xposition Yposition Zposition Zrotation Xrotation Yrotation
		JOINT RightKnee
		{
			OFFSET 0.000000 -0.000002 -20.148901
			CHANNELS 6 Xposition Yposition Zposition Zrotation Xrotation Yrotation
			JOINT RightAnkle
			{
				OFFSET 0.000000 -0.000002 -16.838301
				CHANNELS 6 Xposition Yposition Zposition Zrotation Xrotation Yrotation
				End Site
				{
					OFFSET 0.000000 -8.328398 0.000001
				}
			}
		}
	}
}
MOTION
Frames: 10
Frame Time: 0.041667
-41.012905 -30.659395 43.817604 856.621234 8.314498 -2.018221 -0.672997 0.623904 5.369204 1.328481 48.936782 0.975295 0.000005 0.000001 4.415004 -3.644226 -4.727924 -0.623010 -0.000005 0.000001 10.273302 -2.010642 20.508336 -1.250862 -0.000000 -0.000008 2.173899 -3.143999 -4.903260 -1.251871 2.359892 -0.565204 5.928101 -13.705664 15.168696 -0.752459 5.443697 0.000009 -0.000003 -74.155234 -23.025688 -61.490513 0.000008 0.000001 -10.615803 608.510296 -146.935688 207.992210 0.000002 -0.000006 -13.110291 -142.276283 -163.340026 221.400322 -2.636602 -1.718806 6.889701 219.335174 -204.528553 163.811569 -4.139098 0.000008 0.000005 170.003477 -383.810459 252.133892 -0.000006 -0.000006 -10.471801 127.411647 64.963486 -170.049116 0.000000 -0.000008 -12.281904 57.414700 -54.009977 1.466680 2.273406 0.176709 -2.518000 -130.709276 -146.974729 -150.353542 0.000004 -0.000001 -20.456398 86.300116 131.421213 -137.706750 -0.000003 0.000001 -16.635302 28.510355 6.089418 6.963399 -1.914792 0.018110 -2.699298 118.474508 211.589357 144.149025 0.000003 0.000001 -20.148903 62.036395 62.142222 -11.944720 0.000001 -0.000008 -16.838303 -8.102196 12.327521 3.397220
-40.875107 -30.734898 43.851906 857.932794 7.790529 -1.935601 -0.673002 0.623886 5.369197 1.782091 48.805089 0.464137 0.000006 0.000005 4.415005 -3.790284 -4.700030 -0.621940 -0.000001 -0.000008 10.273301 -2.010776 21.025342 -1.396006 -0.000004 -0.000006 2.173897 -3.334321 -4.872487 -1.200068 2.359899 -0.565200 5.928100 -13.719016 15.161447 -0.618072 5.443696 0.000009 0.000003 -74.140214 -22.983093 -60.605027 0.000007 0.000002 -10.615799 607.527623 -148.146175 206.376338 0.000004 -0.000006 -13.110291 -141.673887 -163.706083 221.157550 -2.636599 -1.718801 6.889699 219.835895 -206.896457 162.314432 -4.139091 0.000004 0.000001 169.718029 -382.033053 251.914152 0.000001 -0.000007 -10.471807 128.861450 65.347630 -170.832470 0.000002 0.000003 -12.281899 57.707927 -53.940733 0.003050 2.273393 0.176698 -2.518003 -131.417020 -147.286445 -150.925215 0.000004 -0.000005 -20.456398 86.649856 131.205584 -138.333146 -0.000001 -0.000006 -16.635302 27.826438 6.235883 6.848932 -1.914802 0.018103 -2.699304 118.226736 211.343087 145.195260 0.000003 -0.000003 -20.148901 60.720935 61.596149 -11.595889 0.000002 -0.000006 -16.838299 -8.430456 12.329395 3.545008
-40.721909 -30.809298 43.880501 859.264572 7.292849 -1.839873 -0.673005 0.623891 5.369206 38.067349 44.215206 -24.324202 -0.000004 -0.000001 4.415006 -29.025411 -5.097109 -2.936731 -0.000002 -0.000011 10.273303 -1.933830 21.572545 -1.608225 -0.000001 0.000000 2.173909 -3.550943 -4.849906 -1.147099 2.359900 -0.565210 5.928096 -13.653660 15.096033 -0.516599 5.443691 0.000011 -0.000004 -74.138111 -22.997337 -59.722812 0.000003 -0.000003 -10.615792 606.212511 -149.409131 204.618889 0.000001 -0.000001 -13.110293 -140.945311 -163.812470 220.753258 -2.636599 -1.718810 6.889703 219.774710 -203.492523 161.696956 -4.139095 0.000003 -0.000001 167.935760 -386.018905 251.205178 -0.000001 0.000000 -10.471806 130.190987 65.723099 -171.543999 0.000001 0.000005 -12.281895 57.200515 -53.451059 -0.120558 2.273395 0.176707 -2.518004 -132.086925 -147.567863 -151.402659 0.000001 -0.000002 -20.456398 86.431837 131.100277 -138.575741 -0.000004 -0.000002 -16.635300 27.351371 6.281331 6.937717 -1.914799 0.018104 -2.699297 118.105391 211.096231 146.310370 0.000001 -0.000002 -20.148899 59.502320 61.056393 -11.430380 -0.000002 -0.000004 -16.838301 -9.116630 12.299399 3.567758
-40.552402 -30.877296 43.900402 860.490564 6.741780 -1.701359 -0.673000 0.623892 5.369211 37.290978 44.136614 -23.923415 0.000000 -0.000006 4.415000 -28.385139 -5.069221 -2.860303 -0.000001 -0.000004 10.273300 -1.754922 22.145287 -1.929065 -0.000004 0.000002 2.173902 -3.833700 -4.846984 -1.088904 2.359900 -0.565208 5.928091 -13.585922 15.038219 -0.373768 5.443693 0.000006 -0.000001 -74.130536 -23.002465 -58.938822 0.000004 0.000002 -10.615804 604.626596 -150.718164 202.766228 0.000005 -0.000003 -13.110294 -139.547199 -164.262771 219.997224 -2.636597 -1.718809 6.889689 219.867259 -203.053560 160.871910 -4.139090 0.000008 0.000005 167.029230 -387.192004 250.900524 -0.000001 -0.000002 -10.471810 131.267029 66.106266 -172.010432 0.000001 0.000008 -12.281899 57.169517 -53.050991 -0.341170 2.273396 0.176704 -2.518000 -132.735396 -147.865891 -151.949060 0.000007 -0.000004 -20.456398 86.192630 130.992278 -138.803842 -0.000001 -0.000006 -16.635300 26.857904 6.352964 6.958452 -1.914800 0.018105 -2.699293 118.388174 210.836369 147.615838 0.000000 0.000003 -20.148907 58.146719 60.523631 -11.313682 0.000004 -0.000004 -16.838301 -9.661629 12.355597 3.547525
-40.368599 -30.940294 43.914909 861.589240 6.133235 -1.527745 -0.673003 0.623888 5.369197 36.680564 44.072475 -23.605504 0.000001 -0.000003 4.415008 -27.813825 -5.044859 -2.795631 0.000003 -0.000007 10.273302 -1.501053 22.656654 -2.307731 -0.000002 0.000008 2.173894 -4.135805 -4.802630 -1.010788 2.359900 -0.565210 5.928098 -13.458241 14.864337 -0.222374 5.443694 -0.000004 -0.000001 -74.014921 -23.092260 -58.089222 0.000003 0.000003 -10.615801 603.816590 -152.376370 201.427606 0.000002 -0.000002 -13.110294 -139.034538 -164.694453 219.858858 -2.636599 -1.718814 6.889696 219.826387 -202.664772 160.377800 -4.139096 0.000004 0.000000 166.333835 -388.491898 250.853806 -0.000005 -0.000003 -10.471810 132.212505 66.513550 -172.382637 -0.000003 -0.000002 -12.281892 57.458044 -52.564152 -0.332234 2.273396 0.176698 -2.518004 -133.354280 -148.185817 -152.580388 -0.000001 -0.000007 -20.456402 85.795236 130.973003 -138.907907 -0.000005 -0.000003 -16.635300 26.470403 6.448794 6.930792 -1.914800 0.018096 -2.699300 119.051481 210.548340 149.075531 0.000004 -0.000001 -20.148907 56.670442 60.010985 -11.219848 0.000002 -0.000013 -16.838303 -10.056666 12.509618 3.491346
-40.173309 -30.999296 43.928509 862.561040 5.506030 -1.298075 -0.673003 0.623900 5.369205 36.231459 43.974623 -23.366171 0.000008 -0.000005 4.414999 -27.352951 -4.971862 -2.734479 -0.000000 -0.000002 10.273299 -1.160041 23.156976 -2.703684 -0.000003 -0.000002 2.173903 -4.437279 -4.806515 -0.942488 2.359903 -0.565195 5.928099 -13.128708 14.556639 -0.246598 5.443696 0.000005 0.000002 -73.816013 -23.410362 -57.096679 0.000001 0.000006 -10.615792 602.616444 -153.906852 199.907889 0.000008 0.000000 -13.110291 -138.513641 -165.110671 219.236846 -2.636600 -1.718795 6.889700 220.028984 -205.178090 160.175586 -4.139093 0.000005 0.000004 166.969206 -387.184655 251.884044 0.000001 0.000000 -10.471809 132.846305 66.911921 -172.492862 0.000003 0.000004 -12.281899 58.046335 -52.045478 0.127118 2.273396 0.176704 -2.518002 -133.934983 -148.500020 -153.267833 -0.000000 -0.000005 -20.456398 85.335864 130.952977 -138.977151 -0.000003 -0.000009 -16.635303 26.102015 6.558776 6.865726 -1.914794 0.018107 -2.699292 120.033089 210.225573 150.611463 0.000003 -0.000001 -20.148905 55.145257 59.487403 -11.206084 0.000000 -0.000004 -16.838303 -10.732248 12.747463 3.343714
-39.971603 -31.050396 43.941105 863.428310 4.837800 -1.057019 -0.672996 0.623900 5.369206 35.899744 43.898982 -23.176295 0.000000 0.000008 4.415009 -26.943935 -4.887527 -2.675495 -0.000002 0.000003 10.273306 -1.108688 23.603097 -2.674994 -0.000005 -0.000004 2.173909 -4.393257 -4.774827 -0.954830 2.359897 -0.565197 5.928096 -12.764637 14.236598 -0.276190 5.443694 0.000002 0.000005 -73.511250 -23.816262 -56.125826 0.000006 -0.000003 -10.615790 601.084842 -155.513107 198.400890 0.000006 -0.000001 -13.110292 -137.474865 -165.415693 218.695854 -2.636603 -1.718800 6.889696 219.729002 -204.359547 160.413850 -4.139089 0.000007 0.000000 166.644554 -389.104785 252.281206 0.000003 0.000006 -10.471807 133.820918 67.356395 -172.900501 0.000004 0.000000 -12.281892 59.165837 -51.518980 0.707399 2.273407 0.176709 -2.517999 -134.475278 -148.867497 -154.006860 0.000000 0.000001 -20.456398 84.704502 131.029803 -138.943533 -0.000004 -0.000005 -16.635300 25.877384 6.685812 6.749248 -1.914789 0.018109 -2.699295 121.128405 209.849147 152.172394 0.000000 -0.000002 -20.148907 53.894492 58.954962 -11.441855 -0.000001 -0.000006 -16.838297 -11.291652 13.074162 3.174289
-39.764397 -31.095095 43.956600 864.194930 4.124408 -0.803958 -0.672997 0.623903 5.369202 35.684624 43.865326 -23.041006 0.000002 -0.000004 4.415000 -26.574832 -4.811948 -2.621057 0.000005 -0.000005 10.273303 -1.320169 23.998561 -2.220245 -0.000006 -0.000002 2.173902 -3.998710 -4.692313 -1.009946 2.359902 -0.565201 5.928094 -12.387497 13.903297 -0.304796 5.443699 0.000000 0.000003 -73.070901 -24.297565 -55.135684 0.000005 0.000000 -10.615790 599.768637 -156.992526 197.171128 0.000002 -0.000004 -13.110298 -136.701564 -165.749307 217.823830 -2.636594 -1.718807 6.889689 219.254127 -202.945971 160.790276 -4.139102 0.000006 0.000002 166.245370 -391.597913 252.561490 -0.000000 -0.000002 -10.471811 134.551639 67.860682 -173.011492 -0.000002 -0.000003 -12.281894 60.003950 -50.863650 1.051718 2.273401 0.176703 -2.518003 -135.055899 -149.266940 -154.851221 0.000003 -0.000002 -20.456402 84.633625 130.968877 -139.264210 -0.000005 -0.000006 -16.635300 25.422249 6.953889 6.396370 -1.914795 0.018106 -2.699300 122.264648 209.403122 153.732463 0.000003 -0.000005 -20.148899 52.547937 58.428013 -11.604098 0.000000 0.000001 -16.838303 -11.683555 13.503759 3.011533
-39.554504 -31.137596 43.978306 864.934995 3.415518 -0.570377 -0.672997 0.623893 5.369203 35.464787 43.847926 -22.882693 0.000001 -0.000003 4.415009 -26.279361 -4.677816 -2.567639 0.000001 -0.000005 10.273302 -1.761233 24.283004 -1.345997 -0.000003 0.000007 2.173897 -3.273700 -4.556664 -1.114566 2.359902 -0.565207 5.928100 -11.901180 13.464790 -0.483662 5.443701 0.000008 0.000004 -72.512068 -24.899649 -54.025396 -0.000002 -0.000001 -10.615787 598.415167 -158.531778 195.659279 0.000005 0.000001 -13.110298 -135.928100 -166.482883 217.276473 -2.636600 -1.718807 6.889693 218.778022 -202.189910 161.463814 -4.139094 0.000008 0.000010 166.352604 -393.536485 253.262103 -0.000001 -0.000006 -10.471807 135.500476 68.430955 -173.330175 0.000004 -0.000001 -12.281897 60.587972 -50.186642 1.158595 2.273400 0.176702 -2.518000 -135.605428 -149.691628 -155.701580 0.000008 -0.000002 -20.456398 84.370752 131.016593 -139.450934 -0.000006 -0.000003 -16.635298 25.110955 7.198473 6.143833 -1.914801 0.018103 -2.699297 123.362055 208.932577 155.261811 0.000004 -0.000006 -20.148895 51.287822 57.886195 -11.837467 0.000002 -0.000004 -16.838303 -12.024226 13.948072 2.834559
-39.342804 -31.177696 44.005608 865.690414 2.752356 -0.358338 -0.673006 0.623898 5.369209 35.176072 43.785997 -22.661147 0.000012 -0.000001 4.415009 -26.019404 -4.519426 -2.510549 -0.000002 -0.000007 10.273302 -2.345697 24.529333 -0.167127 -0.000002 0.000009 2.173896 -2.324275 -4.408132 -1.257857 2.359895 -0.565206 5.928096 -11.341317 13.003413 -0.725064 5.443689 -0.000001 0.000006 -72.018252 -25.420451 -52.932310 0.000005 0.000000 -10.615793 596.799308 -159.883459 194.164465 0.000004 -0.000004 -13.110296 -134.507161 -166.942678 216.515999 -2.636601 -1.718818 6.889701 218.239065 -201.375519 162.230120 -4.139094 0.000003 -0.000001 166.574339 -395.520327 253.997632 0.000001 0.000000 -10.471803 136.863877 69.053984 -174.008345 0.000002 -0.000005 -12.281894 60.800486 -49.635644 0.955847 2.273392 0.176704 -2.518007 -136.171924 -150.105005 -156.532117 0.000000 -0.000002 -20.456398 84.837937 130.782481 -140.111577 -0.000003 -0.000008 -16.635300 24.358512 7.474600 5.764339 -1.914802 0.018106 -2.699299 124.303364 208.448043 156.692545 0.000003 -0.000004 -20.148907 49.986634 57.361452 -11.989764 -0.000004 -0.000011 -16.838301 -12.145053 14.383198 2.665738
